<?xml version="1.0" standalone="no"?>
<!DOCTYPE svg PUBLIC "-//W3C//DTD SVG 20010904//EN"
 "http://www.w3.org/TR/2001/REC-SVG-20010904/DTD/svg10.dtd">
<svg version="1.0" xmlns="http://www.w3.org/2000/svg"
 width="1000.000000pt" height="1000.000000pt" viewBox="0 0 1000.000000 1000.000000"
 preserveAspectRatio="xMidYMid meet">

<g transform="translate(0.000000,1000.000000) scale(0.100000,-0.100000)"
fill="green" stroke="none">
<path d="M6294 6300 c-12 -5 -215 -200 -452 -434 l-429 -426 -511 0 -511 0
-438 430 c-413 406 -439 430 -473 430 -45 0 -80 -33 -80 -76 0 -25 52 -81 375
-403 206 -206 375 -376 375 -378 0 -2 -272 -3 -604 -3 l-603 0 -33 -23 c-49
-32 -74 -81 -73 -140 1 -90 67 -147 169 -147 51 0 64 -3 68 -17 3 -10 57 -272
121 -583 63 -311 117 -575 120 -587 l5 -23 -375 0 c-240 0 -383 -4 -396 -10
-18 -10 -19 -25 -19 -350 l0 -340 -735 0 c-722 0 -735 0 -755 -20 -25 -25 -25
-45 0 -70 20 -20 33 -20 3968 -20 3813 0 3949 1 3965 18 22 24 21 55 -1 75
-17 15 -77 17 -658 17 l-639 0 3 425 c2 285 -1 432 -8 445 -10 20 -23 20 -586
20 l-575 0 6 33 c4 17 50 246 103 507 l97 475 80 5 c53 4 89 12 107 24 32 21
68 91 68 131 0 48 -36 109 -79 133 -39 22 -41 22 -642 22 l-604 1 378 372
c360 355 377 374 377 408 0 62 -53 101 -106 79z m560 -972 c22 -31 20 -71 -4
-93 -20 -18 -92 -19 -1945 -23 l-1923 -5 -26 26 c-30 30 -33 62 -10 95 l15 22
1939 0 1939 0 15 -22z m-239 -209 c3 -4 -337 -1686 -370 -1826 l-5 -23 -1344
0 -1344 0 -5 23 c-9 34 -377 1826 -377 1834 0 7 3438 -1 3445 -8z m955 -1469
l0 -360 -215 0 -215 0 0 355 0 355 173 3 c94 1 191 4 215 5 l42 2 0 -360z
m-540 -5 l0 -355 -346 0 c-289 0 -345 2 -341 14 3 7 8 34 12 59 l7 46 97 3 96
3 0 30 0 30 -88 3 -88 3 7 37 c3 20 9 40 13 44 3 4 40 8 81 10 70 3 75 4 78
27 5 32 -12 41 -84 41 l-61 0 34 168 c19 92 36 173 38 180 3 9 67 12 275 12
l270 0 0 -355z m-3680 128 c7 -32 22 -106 35 -165 l22 -108 -153 0 c-165 0
-184 -6 -184 -55 0 -50 18 -55 195 -55 l163 0 7 -32 c4 -18 9 -41 11 -50 5
-17 -19 -18 -410 -18 l-416 0 0 270 0 270 359 0 360 0 11 -57z"/>
<path d="M4322 4694 c-75 -37 -124 -107 -137 -196 -6 -42 -5 -48 18 -63 37
-24 63 -7 71 46 10 60 31 96 76 125 34 23 48 26 98 22 36 -2 68 -11 84 -23 34
-25 68 -85 68 -119 0 -24 30 -66 48 -66 5 0 16 6 27 14 38 27 1 159 -62 218
-75 71 -197 89 -291 42z"/>
<path d="M5245 4701 c-50 -23 -109 -84 -130 -133 -22 -55 -20 -125 5 -138 27
-14 58 3 65 35 3 14 8 37 11 52 14 68 78 113 159 113 84 0 145 -57 160 -148 8
-49 33 -69 65 -52 23 13 27 60 8 122 -16 52 -77 121 -133 147 -58 27 -154 28
-210 2z"/>
<path d="M4864 3955 c-43 -18 -64 -51 -64 -101 0 -75 81 -125 147 -91 40 21
53 39 60 80 13 81 -67 145 -143 112z"/>
<path d="M7220 3625 c-6 -8 -9 -23 -5 -35 6 -20 12 -20 138 -18 131 3 132 3
135 27 2 13 -2 28 -10 32 -7 5 -65 9 -129 9 -90 0 -119 -3 -129 -15z"/>
<path d="M7220 3464 c-10 -11 -11 -20 -3 -32 9 -14 30 -17 139 -17 l129 0 0
30 0 30 -126 3 c-106 2 -128 0 -139 -14z"/>
</g>
</svg>
